<mxfile host="app.diagrams.net" modified="2023-08-25T11:25:34.829Z" agent="Mozilla/5.0 (Windows NT 10.0; Win64; x64) AppleWebKit/537.36 (KHTML, like Gecko) Chrome/116.0.0.0 Safari/537.36 Edg/116.0.1938.54" version="21.3.8" etag="U6Pw0sxVdsxQUQLSk0uo" type="github">
  <diagram name="第 1 页" id="YDqDA-HEyGvaGSAMhL3t">
    <mxGraphModel>
      <root>
        <mxCell id="0" />
        <mxCell id="1" parent="0" />
      </root>
    </mxGraphModel>
  </diagram>
</mxfile>
